<svg version="1.1" id="Layer_1" xmlns="http://www.w3.org/2000/svg" xmlns:xlink="http://www.w3.org/1999/xlink" x="0px" y="0px"
	 width="100%" viewBox="0 0 256 256" enable-background="new 0 0 256 256" xml:space="preserve">
<path fill="#000000" opacity="1.000000" stroke="none" 
	d="
M124.000000,99.070633 
	C122.614662,85.354897 123.060608,72.083199 122.985481,58.823780 
	C122.973885,56.776878 123.668739,54.143867 120.298576,54.027149 
	C116.804649,53.906139 117.049530,56.659714 117.034775,58.851860 
	C116.959610,70.017838 117.000015,81.184601 116.999992,92.351089 
	C116.999985,99.350983 117.443199,106.385323 116.902290,113.343163 
	C115.949707,125.596329 116.018570,137.847641 116.017731,150.107849 
	C116.017502,153.360458 114.648811,155.098480 111.294441,154.995865 
	C108.195518,154.901093 106.895050,153.172302 106.998604,150.196457 
	C107.010185,149.863541 107.002800,149.529831 106.999596,149.196533 
	C106.710732,119.110634 105.436813,89.035728 105.988762,58.940090 
	C106.009964,57.784386 106.105484,56.542877 105.741081,55.488312 
	C105.232895,54.017628 103.793732,53.735180 102.422867,54.043327 
	C100.518173,54.471481 100.112816,56.188995 100.049026,57.736599 
	C99.838959,62.833206 99.676094,67.902641 99.161636,73.007561 
	C98.251877,82.035126 98.586868,91.180534 97.944870,100.244324 
	C96.770348,116.826157 95.808586,133.418854 94.763840,150.004333 
	C94.222015,158.605820 93.893417,167.167877 94.064285,175.749954 
	C94.184074,181.766205 97.502792,186.463882 102.095642,189.939178 
	C109.057526,195.207031 113.776314,201.261871 113.085274,210.640610 
	C112.633362,216.773880 112.954231,222.967987 113.023514,229.133774 
	C113.049385,231.436157 113.013229,231.732315 110.130470,231.226822 
	C90.981003,227.869110 74.612770,219.399521 60.025696,206.652634 
	C41.343857,190.327545 30.232029,169.743958 26.217981,145.720062 
	C22.007965,120.523361 27.034773,96.699837 40.622017,74.765320 
	C56.338352,49.393707 78.921326,33.365517 107.785492,27.310478 
	C134.254150,21.757965 159.697571,26.003891 183.018753,40.505047 
	C205.134430,54.256630 220.181290,73.364052 228.106934,98.291321 
	C236.050125,123.273865 234.188202,147.453995 224.024048,171.381622 
	C218.863525,183.530090 211.360321,194.166245 202.067551,203.130798 
	C186.949265,217.715103 169.187561,228.001480 147.907700,231.059036 
	C147.154221,231.167328 146.461014,231.695053 144.837662,232.442749 
	C146.111618,221.185791 142.893158,210.399567 146.924515,199.803772 
	C148.531784,195.579315 151.883133,192.945755 155.117844,190.597031 
	C162.763641,185.045349 164.583939,177.443207 164.255417,168.806473 
	C163.916534,159.897049 163.486816,150.989975 162.986908,142.088043 
	C161.989716,124.330910 160.494568,106.610069 159.818115,88.823326 
	C159.450714,79.162560 158.253128,69.502052 158.006622,59.802639 
	C157.945892,57.412540 158.340805,54.380905 155.142670,54.118195 
	C150.640091,53.748333 152.100098,57.563038 152.055664,59.873276 
	C151.908310,67.536987 151.811874,75.210785 152.035568,82.870796 
	C152.685913,105.142174 150.496399,127.364395 151.018707,149.628021 
	C151.097717,152.995743 149.981506,155.114609 146.274017,154.990829 
	C142.829651,154.875854 141.886536,152.765747 141.984207,149.675446 
	C142.572144,131.074905 140.408356,112.528435 140.942368,93.917496 
	C141.257721,82.926720 141.000320,71.919502 140.999512,60.919678 
	C140.999420,59.753059 141.200806,58.537392 140.940125,57.431343 
	C140.551102,55.780617 140.358459,53.811741 137.766998,53.977379 
	C135.214310,54.140545 134.975433,55.743977 134.985382,57.755703 
	C135.022461,65.255402 135.410690,72.782188 134.923325,80.250267 
	C133.438919,102.996307 134.242188,125.758286 133.980988,148.511658 
	C133.941681,151.937012 133.599213,155.171829 128.773682,155.041611 
	C124.197701,154.918106 124.045433,151.713257 124.032112,148.561356 
	C123.963120,132.227966 124.000008,115.894135 124.000000,99.070633 
z"/>
</svg>